<svg xmlns="http://www.w3.org/2000/svg" version="1.1" xmlns:xlink="http://www.w3.org/1999/xlink" xmlns:svgjs="http://svgjs.dev/svgjs" width="2000" height="398" viewBox="0 0 2000 398"><g transform="matrix(1,0,0,1,-1.2121212121212466,0.5865055869376761)"><svg viewBox="0 0 396 79" data-background-color="#f9f9f9" preserveAspectRatio="xMidYMid meet" height="398" width="2000" xmlns="http://www.w3.org/2000/svg" xmlns:xlink="http://www.w3.org/1999/xlink"><g id="tight-bounds" transform="matrix(1,0,0,1,0.2400000000000091,-0.1164169381107456)"><svg viewBox="0 0 395.52 79.23283387622149" height="79.23283387622149" width="395.52"><g><svg viewBox="0 0 395.52 79.23283387622149" height="79.23283387622149" width="395.52"><g><svg viewBox="0 0 395.52 79.23283387622149" height="79.23283387622149" width="395.52"><g id="textblocktransform"><svg viewBox="0 0 395.52 79.23283387622149" height="79.23283387622149" width="395.52" id="textblock"><g><svg viewBox="0 0 395.52 79.23283387622149" height="79.23283387622149" width="395.52"><g transform="matrix(1,0,0,1,0,0)"><svg width="395.52" viewBox="2.34 -37.38 254.82000000000002 51.050000000000004" height="79.23283387622149" data-palette-color="#1c1c1c"><path d="M2.34-34.74L2.34-36.82 14.31-36.82 14.31-34.74 10.62-34.18 10.62-2.64 14.31-2.08 14.31 0 2.34 0 2.34-2.08 6.1-2.64 6.1-34.18 2.34-34.74ZM33.93-21.56L33.93-21.56Q29.66-21.56 26-18.97L26-18.97 26-2.59 29.1-2.03 29.1 0 18.89 0 18.89-2.03 22.04-2.59 22.04-20.36 18.89-20.92 18.89-22.95 26-24.73 26-21.56Q30.59-24.73 34.64-24.73L34.64-24.73Q39.72-24.73 41.23-21.51L41.23-21.51Q43.72-23.24 46.09-23.99 48.46-24.73 50.12-24.73L50.12-24.73Q53.83-24.73 55.65-22.88 57.47-21.02 57.47-17.19L57.47-17.19 57.47-2.59 60.54-2.03 60.54 0 50.39 0 50.39-2.03 53.49-2.59 53.49-17.19Q53.49-19.38 52.19-20.56L52.19-20.56Q51.1-21.56 49.46-21.56L49.46-21.56Q45.26-21.56 41.77-19.04L41.77-19.04Q41.89-17.82 41.89-17.19L41.89-17.19 41.89-2.59 44.7-2.03 44.7 0 35.03 0 35.03-2.03 37.89-2.59 37.89-17.19Q37.89-19.38 36.67-20.56L36.67-20.56Q35.62-21.56 33.93-21.56ZM86.93-3.56L87.37-1.27Q83.81 0.56 82.22 0.56L82.22 0.56Q78.66 0.56 78.66-2.47L78.66-2.47 78.66-3.22Q78.32-2.71 76.79-1.73 75.26-0.76 74.41-0.37L74.41-0.37Q72.38 0.56 71.33 0.56 70.28 0.56 69.6 0.48 68.92 0.39 68.18 0.15 67.45-0.1 66.74-0.54 66.04-0.98 65.47-1.68L65.47-1.68Q64.23-3.25 64.23-5.76L64.23-5.76Q64.23-9.23 66.69-10.6L66.69-10.6Q68.26-11.5 70-11.72 71.75-11.94 73.19-12.06L73.19-12.06Q75.92-12.3 78.66-12.35L78.66-12.35 78.66-17.48Q78.66-19.6 78.12-20.31L78.12-20.31Q77.22-21.56 75.31-21.56L75.31-21.56Q71.06-21.56 66.96-18.8L66.96-18.8 65.55-20.92Q71.26-24.73 75.78-24.73L75.78-24.73Q79.71-24.73 81.34-22.56L81.34-22.56Q82.61-20.87 82.61-17.77L82.61-17.77 82.61-4.93Q82.61-3.13 83.3-2.88L83.3-2.88Q83.54-2.81 83.93-2.81L83.93-2.81Q84.91-2.81 86.93-3.56L86.93-3.56ZM78.66-5.47L78.66-10.3Q71.72-10.03 69.77-8.91L69.77-8.91Q68.28-8.06 68.28-6.15L68.28-6.15Q68.28-3.39 70.41-2.76L70.41-2.76Q70.99-2.59 71.83-2.59 72.68-2.59 73.8-2.93 74.92-3.27 75.87-3.76L75.87-3.76Q77.68-4.64 78.66-5.47L78.66-5.47ZM113.3-20.58L110.12-20.58Q111.27-18.73 111.27-15.97L111.27-15.97Q111.27-12.08 107.37-9.08L107.37-9.08Q105.66-7.76 103.36-6.88L103.36-6.88 99.63-5.47Q96.94-4.47 96.59-4.09 96.23-3.71 96.23-3.48 96.23-3.25 96.48-3.03 96.72-2.81 97.28-2.61L97.28-2.61Q98.63-2.15 101.04-2.15 103.46-2.15 105.56-1.89 107.66-1.64 109.27-0.93L109.27-0.93Q112.79 0.66 112.79 4.49L112.79 4.49Q112.79 7.08 110.76 9.3L110.76 9.3Q107.95 12.35 102.8 13.38L102.8 13.38Q101.26 13.67 99.41 13.67 97.55 13.67 95.62 13.28 93.69 12.89 92.25 12.06L92.25 12.06Q89.2 10.33 89.2 6.86L89.2 6.86Q89.2 4.17 91.47 2.73L91.47 2.73 93.06 1.78Q93.72 1.44 94.54 1.27 95.35 1.1 96.18 0.88L96.18 0.88Q93.55 0.37 92.55-1.22L92.55-1.22Q92.2-1.78 92.2-2.4 92.2-3.03 92.45-3.47 92.69-3.91 93.33-4.35 93.96-4.79 95.09-5.32L95.09-5.32 97.99-6.69Q95.7-7.13 93.69-8.81L93.69-8.81Q90.93-11.13 90.93-15.36L90.93-15.36Q90.93-19.41 94.5-22.22L94.5-22.22Q97.65-24.73 101.43-24.73 105.22-24.73 107.98-22.95L107.98-22.95Q109.73-24.17 113.79-24.68L113.79-24.68 114.45-23.93 113.3-20.58ZM93.62 5.46Q93.47 6.13 93.47 7.15 93.47 8.18 94.23 9.05 94.99 9.91 96.16 10.38L96.16 10.38Q98.06 11.13 100.47 11.13 102.87 11.13 104.14 10.74 105.41 10.35 106.36 9.62L106.36 9.62Q108.51 8.01 108.51 5.42L108.51 5.42Q108.51 2.17 103.92 1.76L103.92 1.76Q102.58 1.64 101.12 1.64L101.12 1.64Q96.92 1.64 94.45 4.1L94.45 4.1Q93.77 4.79 93.62 5.46ZM95.48-18.95L95.48-18.95Q94.96-17.75 94.96-16.03 94.96-14.31 95.48-13.04 95.99-11.77 96.87-10.89L96.87-10.89Q98.65-9.11 101.46-9.11L101.46-9.11Q105.12-9.11 106.68-12.18L106.68-12.18Q107.27-13.33 107.27-15.03 107.27-16.72 106.76-18.04 106.24-19.36 105.36-20.29L105.36-20.29Q103.53-22.22 100.77-22.22L100.77-22.22Q96.87-22.22 95.48-18.95ZM138.25-5.59L138.25-5.59 139.64-4Q135.76-0.51 132.12 0.37L132.12 0.37Q131.31 0.56 130.53 0.56L130.53 0.56Q125.16 0.56 121.79-2.83L121.79-2.83Q118.45-6.15 118.45-11.5L118.45-11.5Q118.45-16.82 121.6-20.61L121.6-20.61Q125.06-24.73 130.61-24.73L130.61-24.73Q134.44-24.73 137.07-21.97L137.07-21.97Q139.88-19.09 139.88-14.48L139.88-14.48 138.74-13.45 122.82-12.3Q122.87-7.86 125.7-5.2L125.7-5.2Q128.24-2.86 131.61-2.86 134.98-2.86 138.25-5.59ZM122.99-14.6L122.99-14.6 135.54-15.75Q135.37-19.8 132.41-21.31L132.41-21.31Q131.36-21.85 129.73-21.85 128.09-21.85 126.81-21.04 125.53-20.24 124.7-19.09L124.7-19.09Q123.11-16.92 122.99-14.6ZM145.98-12.94L146.01-16.11 158.34-16.11 158.34-12.94 145.98-12.94ZM187.05-13.94L187.05-16.58 201.47-16.58 201.47-13.94 200.11-13.94Q199.37-13.94 199-13.71 198.62-13.48 198.62-12.84L198.62-12.84 198.62-2.29Q196.86-2.29 194.71-1.56L194.71-1.56 191.59-0.54Q188.1 0.56 184.05 0.56 180.01 0.56 176.41-0.89 172.81-2.34 170.27-4.86 167.73-7.37 166.35-10.77 164.98-14.16 164.98-17.59 164.98-21.02 165.7-23.63 166.42-26.25 167.71-28.39 169-30.54 170.8-32.21 172.59-33.89 174.74-35.03L174.74-35.03Q179.16-37.38 184.36-37.38L184.36-37.38Q192.39-37.38 197.1-34.89L197.1-34.89 196.54-28.86 194.93-28.86Q194.93-31.1 192.15-32.69L192.15-32.69Q189.07-34.45 184.24-34.45L184.24-34.45Q177.96-34.45 173.81-29.93L173.81-29.93Q169.76-25.54 169.76-19.26L169.76-19.26Q169.76-12.38 173.57-7.54L173.57-7.54Q177.67-2.37 184.63-2.37L184.63-2.37Q192.29-2.37 193.66-5.66L193.66-5.66Q194.08-6.69 194.08-7.89L194.08-7.89 194.08-12.84Q194.08-13.5 193.7-13.72 193.32-13.94 192.69-13.94L192.69-13.94 187.05-13.94ZM225.79-5.59L225.79-5.59 227.18-4Q223.3-0.51 219.66 0.37L219.66 0.37Q218.85 0.56 218.07 0.56L218.07 0.56Q212.7 0.56 209.33-2.83L209.33-2.83Q205.99-6.15 205.99-11.5L205.99-11.5Q205.99-16.82 209.14-20.61L209.14-20.61Q212.6-24.73 218.15-24.73L218.15-24.73Q221.98-24.73 224.62-21.97L224.62-21.97Q227.42-19.09 227.42-14.48L227.42-14.48 226.28-13.45 210.36-12.3Q210.41-7.86 213.24-5.2L213.24-5.2Q215.78-2.86 219.15-2.86 222.52-2.86 225.79-5.59ZM210.53-14.6L210.53-14.6 223.08-15.75Q222.91-19.8 219.95-21.31L219.95-21.31Q218.9-21.85 217.27-21.85 215.63-21.85 214.35-21.04 213.07-20.24 212.24-19.09L212.24-19.09Q210.65-16.92 210.53-14.6ZM245.68-21.56L245.68-21.56Q241.95-21.56 238.19-18.97L238.19-18.97 238.19-2.59 241.29-2.03 241.29 0 231.03 0 231.03-2.03 234.21-2.59 234.21-20.36 231.03-20.92 231.03-22.95 237.77-24.73 237.77-21.56Q242.7-24.73 246.93-24.73L246.93-24.73Q252.01-24.73 253.54-20.51L253.54-20.51Q254.06-19.09 254.06-17.19L254.06-17.19 254.06-2.59 257.16-2.03 257.16 0 246.93 0 246.93-2.03 250.08-2.59 250.08-16.72Q250.08-21.56 245.68-21.56Z" opacity="1" transform="matrix(1,0,0,1,0,0)" fill="#1c1c1c" class="wordmark-text-0" data-fill-palette-color="primary" id="text-0"></path></svg></g></svg></g></svg></g></svg></g></svg></g><defs></defs></svg><rect width="395.52" height="79.23283387622149" fill="none" stroke="none" visibility="hidden"></rect></g></svg></g></svg>